<svg id="图层_1" data-name="图层 1" xmlns="http://www.w3.org/2000/svg" viewBox="0 0 66.93 59.24"><defs><style>.cls-1{fill:none;stroke:#565656;stroke-miterlimit:10;stroke-width:3px;}.cls-2{fill:#565656;}</style></defs><title>2 - 副本</title><path class="cls-1" d="M59.38,74.77C62,81.93,68.14,86.91,75.22,86.83c9.39-.1,16.9-9.07,16.78-20S84.16,47.08,74.78,47.18a15,15,0,0,0-2.78.3,2.52,2.52,0,0,0-1.94,2" transform="translate(-26.57 -29.09)"/><path class="cls-1" d="M70.26,49.39c-.05.25-.12.49-.19.73" transform="translate(-26.57 -29.09)"/><ellipse class="cls-2" cx="43.25" cy="35.8" rx="1.87" ry="2.34"/><ellipse class="cls-2" cx="53.28" cy="35.8" rx="1.87" ry="2.34"/><path class="cls-1" d="M49,30.59a18.55,18.55,0,0,0-3.43.33,3.12,3.12,0,0,0-2.41,2.4,10.55,10.55,0,0,1-10.37,8.24h0A2,2,0,0,0,31,42.65,27.4,27.4,0,0,0,28.07,55c0,13.48,9.37,24.41,20.93,24.41S69.93,68.48,69.93,55,60.56,30.59,49,30.59Z" transform="translate(-26.57 -29.09)"/><ellipse class="cls-2" cx="16.06" cy="23.31" rx="2.31" ry="2.89"/><ellipse class="cls-2" cx="28.4" cy="23.31" rx="2.31" ry="2.89"/></svg>