<svg id="图层_1" data-name="图层 1" xmlns="http://www.w3.org/2000/svg" viewBox="0 0 67.18 59.71"><defs><style>.cls-1{fill:#f9d034;stroke:#040303;stroke-miterlimit:10;stroke-width:3px;}.cls-2{fill:#040303;}</style></defs><title>chat_active</title><path class="cls-1" d="M49.06,30.9a17.52,17.52,0,0,0-3.41.33,3.08,3.08,0,0,0-2.39,2.37A10.48,10.48,0,0,1,33,41.79h0a2,2,0,0,0-1.82,1.09,27.31,27.31,0,0,0-2.85,12.27c0,13.39,9.3,24.24,20.79,24.24S69.85,68.54,69.85,55.15,60.54,30.9,49.06,30.9Z" transform="translate(-26.77 -29.4)"/><ellipse class="cls-2" cx="15.96" cy="23.17" rx="2.29" ry="2.87"/><ellipse class="cls-2" cx="28.23" cy="23.17" rx="2.29" ry="2.87"/><path class="cls-1" d="M75.33,47.69a14.45,14.45,0,0,0-2.8.27,2.53,2.53,0,0,0-2,2,8.63,8.63,0,0,1-8.48,6.73h0a1.67,1.67,0,0,0-1.5.9,22.46,22.46,0,0,0-2.35,10.1c0,11,7.66,20,17.11,20s17.12-8.94,17.12-20S84.79,47.69,75.33,47.69Z" transform="translate(-26.77 -29.4)"/><ellipse class="cls-2" cx="44.43" cy="33.99" rx="1.89" ry="2.36"/><ellipse class="cls-2" cx="54.53" cy="33.99" rx="1.89" ry="2.36"/></svg>