<svg id="图层_1" data-name="图层 1" xmlns="http://www.w3.org/2000/svg" viewBox="0 0 52.62 49.31"><defs><style>.cls-1{fill:none;stroke:#575757;stroke-miterlimit:10;stroke-width:3px;}</style></defs><title>home</title><path class="cls-1" d="M36.77,63.48s0,19.49,19.72,19.27S77.36,63,77.36,63l2.43-1.71c2.62-1.84,2.83-4.64.43-6.76L64.39,39.68a10.29,10.29,0,0,0-14.55-.44L33.42,54.74a4.24,4.24,0,0,0,.31,6.09Z" transform="translate(-30.78 -34.94)"/><path class="cls-1" d="M50.19,62.23a2.31,2.31,0,0,0-1.08,2.53c.48,2.19,2.13,7,7.3,7.09,4.6.11,6.81-3.76,7.74-6.21a2.64,2.64,0,0,0-1.34-3.37,15.77,15.77,0,0,0-6.32-1.12C53.09,61.12,51.22,61.64,50.19,62.23Z" transform="translate(-30.78 -34.94)"/></svg>